# xmcd
#
# Track frame offsets: 
#        150
#        28855
#        47948
#        73536
#        90653
#        112532
#        142358
#        166032
#        182769
#        205771
#        234382
#        257318
#        284588
#
# Disc length: 4224 seconds
#
# Revision: 0
# Processed by: cddbd v1.5.2PL0 Copyright (c) Steve Scherf et al.
# Submitted via: ExactAudioCopy v0.95b4
#
DISCID=b2107e0d
DTITLE=Taj Mahal - Live At Estival Jazz
DYEAR=2002
DGENRE=
TTITLE0=01 Cocunut Man
TTITLE1=02 Everybody Is Somebody
TTITLE2=03 Queen Bee
TTITLE3=04 Stagger Lee
TTITLE4=05 The New Hula Blues
TTITLE5=06 Sacred Island
TTITLE6=07 Moonlight Lady
TTITLE7=08 Livin' On Easy
TTITLE8=09 My Creole Belle
TTITLE9=10 Roscoe's View
TTITLE10=11 Mailbox Blues
TTITLE11=12 Sittin On Top Of The World
TTITLE12=13 Kanikapila
EXTD=
EXTT0=
EXTT1=
EXTT2=
EXTT3=
EXTT4=
EXTT5=
EXTT6=
EXTT7=
EXTT8=
EXTT9=
EXTT10=
EXTT11=
EXTT12=
PLAYORDER=
